<svg xmlns="http://www.w3.org/2000/svg" viewBox="0 0 1200 600" role="img" aria-label="Un escudo con una pluma">
  <defs><linearGradient id="g5" x1="0" y1="0" x2="1" y2="1"><stop offset="0%" stop-color="#faf8f4"/><stop offset="55%" stop-color="#f5ede6"/><stop offset="100%" stop-color="#e8d9c8"/></linearGradient><pattern id="p5" width="26" height="26" patternUnits="userSpaceOnUse"><circle cx="2" cy="2" r="1" fill="#1c1917" opacity="0.05"/></pattern></defs>
  <rect width="1200" height="600" fill="url(#g5)"/><rect width="1200" height="600" fill="url(#p5)"/>
  <path d="M 520 140 L 700 190 V 330 C 700 420 620 480 520 510 C 420 480 340 420 340 330 V 190 Z" fill="#ffffff" stroke="#9a3412" stroke-width="6" opacity="0.95"/>
  <path d="M 520 175 L 665 216 V 330 C 665 400 600 450 520 475 C 440 450 375 400 375 330 V 216 Z" fill="#9a3412" opacity="0.08"/>
  <g transform="translate(472 260) scale(4.2)" fill="none" stroke="#9a3412" stroke-width="1.8" stroke-linecap="round" stroke-linejoin="round" opacity="0.9"><path d="M20.24 12.24a6 6 0 0 0-8.49-8.49L5 10.5V19h8.5z"/><line x1="16" y1="8" x2="2" y2="22"/><line x1="17.5" y1="15" x2="9" y2="15"/></g>
  <circle cx="920" cy="180" r="110" fill="#9a3412" opacity="0.06"/>
  <circle cx="230" cy="450" r="80" fill="#1c1917" opacity="0.04"/>
  <rect x="80" y="510" width="220" height="4" rx="2" fill="#9a3412" opacity="0.85"/>
</svg>
